# xmcd
#
# Track frame offsets: 
#        150
#        15753
#        31933
#        48004
#        65293
#        80059
#        90989
#        106747
#        118501
#        133081
#        146453
#        168332
#        184050
#        204024
#        219016
#        233933
#        249060
#        262650
#        273704
#        286774
#
# Disc length: 4011 seconds
#
# Revision: 0
# Processed by: cddbd v1.5.2PL0 Copyright (c) Steve Scherf et al.
# Submitted via: ExactAudioCopy v1.1
#
DISCID=f30fa914
DTITLE=Various Artist - De Pré Historie - De Jaren '70 - De Ultieme 10 CD Col
DTITLE=lectie - 1976
DYEAR=2018
DGENRE=Top 40
TTITLE0=Boney M - Daddy Cool
TTITLE1=Marianne Rosenberg - Ich Bin Wie Du
TTITLE2=Peter Frampton - Show Me The Way (Live)
TTITLE3=Abba - Dancing Queen
TTITLE4=Johnny Wakelin - In Zaire
TTITLE5=Sammy Davis, Jr. - Baretta's Theme
TTITLE6=Tavares - Heaven Must Be Missing An Angel
TTITLE7=Sutherland Brothers and Quiver - Arms Of Mary
TTITLE8=Patricia Paay - Who's That Lady With My Man
TTITLE9=Bryan Ferry - Let's Stick Together
TTITLE10=Wild Cherry - Play That Funky Music
TTITLE11=The Real Thing - You To Me Are Everything
TTITLE12=Lou Rawls - You'll Never Find Another Love Like Mine
TTITLE13=Boston - More Than A Feeling
TTITLE14=Gérard Lenorman - La Ballade Des Gens Heureux
TTITLE15=Jimmy James and The Vagabonds - I'll Go Where Your Music Takes 
TTITLE15=Me
TTITLE16=Billy Ocean - Love Really Hurts Without You
TTITLE17=Cathérine Ferry - Un, Deux, Trois
TTITLE18=J.J. Cale - Cocaine
TTITLE19=Electric Light Orchestra - Can't Get It Out Of My Head
EXTD=
EXTT0=
EXTT1=
EXTT2=
EXTT3=
EXTT4=
EXTT5=
EXTT6=
EXTT7=
EXTT8=
EXTT9=
EXTT10=
EXTT11=
EXTT12=
EXTT13=
EXTT14=
EXTT15=
EXTT16=
EXTT17=
EXTT18=
EXTT19=
PLAYORDER=
